# Alias OBJ Model File
# Exported from SketchUp, (c) 2000-2012 Trimble Navigation Limited
# File units = meters

mtllib ShallowWedge_4m_Block.mtl

g Mesh1 Component_6_1 Model

usemtl FrontColor
v 4 0 -4
vt -157.48 0
vn 0 0 -1
v 0 0 -4
vt 0 0
v 0 0.2 -4
vt 0 7.87402
v 4 0.7 -4
vt -157.48 27.5591
f 1/1/1 2/2/1 3/3/1 4/4/1 

vt -157.48 157.48
vn 0 -1 -0
v 4 0 -0
v 0 0 -0
vt 0 157.48
f 1/5/2 5/1/2 6/2/2 2/6/2 

vn 1 0 -0
vt 157.48 0
vt 157.48 27.5591
v 4 0.7 -0
vt 0 27.5591
f 5/2/3 1/7/3 4/8/3 7/9/3 

v 0 0.2 -0
vt 0 0.976651
vn -0.124035 0.992278 -0
vt 0 159.683
vt -157.48 159.683
vt -157.48 0.976651
f 8/10/4 7/11/4 4/12/4 3/13/4 

vn 0 0 1
f 6/2/5 5/7/5 7/8/5 8/3/5 

vn -1 0 -0
vt -157.48 7.87402
f 2/1/6 6/2/6 8/3/6 3/14/6 

