v 1.0 0.0 0.0
vt 0 0
vn 1 0 -0
v 1.0 0.0 -1.0
vt 157.48 0
v 1.0 1.0 -1.0
vt 157.48 157.48
v 1.0 1.0 0.0
vt 0 157.48
f 1/1/1 2/2/1 3/3/1 4/4/1
v 0.0 0.0 0.0
vn 0 -1 -0
v 0.0 0.0 -1.0
vt -157.48 157.48
vt -157.48 0
f 5/1/2 6/4/2 2/5/2 1/6/2
vn -1 0 -0
v 0.0 1.0 0.0
v 0.0 1.0 -1.0
f 6/6/3 5/1/3 7/4/3 8/5/3
vn 0 0 1
f 5/1/4 1/2/4 4/3/4 7/4/4
vn 0 1 -0
f 8/4/5 7/1/5 4/2/5 3/3/5
vn 0 0 -1
f 2/6/6 6/1/6 8/4/6 3/5/6
v 2.0 0.0 0.0
vt 0 0
vn 1 0 -0
v 2.0 0.0 -1.0
vt 157.48 0
v 2.0 1.0 -1.0
vt 157.48 157.48
v 2.0 1.0 0.0
vt 0 157.48
f 9/1/1 10/2/1 11/3/1 12/4/1
v 1.0 0.0 0.0
vn 0 -1 -0
v 1.0 0.0 -1.0
vt -157.48 157.48
vt -157.48 0
f 13/1/2 14/4/2 10/5/2 9/6/2
vn -1 0 -0
v 1.0 1.0 0.0
v 1.0 1.0 -1.0
f 14/6/3 13/1/3 15/4/3 16/5/3
vn 0 0 1
f 13/1/4 9/2/4 12/3/4 15/4/4
vn 0 1 -0
f 16/4/5 15/1/5 12/2/5 11/3/5
vn 0 0 -1
f 10/6/6 14/1/6 16/4/6 11/5/6
v 3.0 0.0 0.0
vt 0 0
vn 1 0 -0
v 3.0 0.0 -1.0
vt 157.48 0
v 3.0 1.0 -1.0
vt 157.48 157.48
v 3.0 1.0 0.0
vt 0 157.48
f 17/1/1 18/2/1 19/3/1 20/4/1
v 2.0 0.0 0.0
vn 0 -1 -0
v 2.0 0.0 -1.0
vt -157.48 157.48
vt -157.48 0
f 21/1/2 22/4/2 18/5/2 17/6/2
vn -1 0 -0
v 2.0 1.0 0.0
v 2.0 1.0 -1.0
f 22/6/3 21/1/3 23/4/3 24/5/3
vn 0 0 1
f 21/1/4 17/2/4 20/3/4 23/4/4
vn 0 1 -0
f 24/4/5 23/1/5 20/2/5 19/3/5
vn 0 0 -1
f 18/6/6 22/1/6 24/4/6 19/5/6
v 4.0 0.0 0.0
vt 0 0
vn 1 0 -0
v 4.0 0.0 -1.0
vt 157.48 0
v 4.0 1.0 -1.0
vt 157.48 157.48
v 4.0 1.0 0.0
vt 0 157.48
f 25/1/1 26/2/1 27/3/1 28/4/1
v 3.0 0.0 0.0
vn 0 -1 -0
v 3.0 0.0 -1.0
vt -157.48 157.48
vt -157.48 0
f 29/1/2 30/4/2 26/5/2 25/6/2
vn -1 0 -0
v 3.0 1.0 0.0
v 3.0 1.0 -1.0
f 30/6/3 29/1/3 31/4/3 32/5/3
vn 0 0 1
f 29/1/4 25/2/4 28/3/4 31/4/4
vn 0 1 -0
f 32/4/5 31/1/5 28/2/5 27/3/5
vn 0 0 -1
f 26/6/6 30/1/6 32/4/6 27/5/6
v 1.0 0.0 1.0
vt 0 0
vn 1 0 -0
v 1.0 0.0 0.0
vt 157.48 0
v 1.0 1.0 0.0
vt 157.48 157.48
v 1.0 1.0 1.0
vt 0 157.48
f 33/1/1 34/2/1 35/3/1 36/4/1
v 0.0 0.0 1.0
vn 0 -1 -0
v 0.0 0.0 0.0
vt -157.48 157.48
vt -157.48 0
f 37/1/2 38/4/2 34/5/2 33/6/2
vn -1 0 -0
v 0.0 1.0 1.0
v 0.0 1.0 0.0
f 38/6/3 37/1/3 39/4/3 40/5/3
vn 0 0 1
f 37/1/4 33/2/4 36/3/4 39/4/4
vn 0 1 -0
f 40/4/5 39/1/5 36/2/5 35/3/5
vn 0 0 -1
f 34/6/6 38/1/6 40/4/6 35/5/6
v 1.0 0.0 2.0
vt 0 0
vn 1 0 -0
v 1.0 0.0 1.0
vt 157.48 0
v 1.0 1.0 1.0
vt 157.48 157.48
v 1.0 1.0 2.0
vt 0 157.48
f 41/1/1 42/2/1 43/3/1 44/4/1
v 0.0 0.0 2.0
vn 0 -1 -0
v 0.0 0.0 1.0
vt -157.48 157.48
vt -157.48 0
f 45/1/2 46/4/2 42/5/2 41/6/2
vn -1 0 -0
v 0.0 1.0 2.0
v 0.0 1.0 1.0
f 46/6/3 45/1/3 47/4/3 48/5/3
vn 0 0 1
f 45/1/4 41/2/4 44/3/4 47/4/4
vn 0 1 -0
f 48/4/5 47/1/5 44/2/5 43/3/5
vn 0 0 -1
f 42/6/6 46/1/6 48/4/6 43/5/6
v 1.0 0.0 3.0
vt 0 0
vn 1 0 -0
v 1.0 0.0 2.0
vt 157.48 0
v 1.0 1.0 2.0
vt 157.48 157.48
v 1.0 1.0 3.0
vt 0 157.48
f 49/1/1 50/2/1 51/3/1 52/4/1
v 0.0 0.0 3.0
vn 0 -1 -0
v 0.0 0.0 2.0
vt -157.48 157.48
vt -157.48 0
f 53/1/2 54/4/2 50/5/2 49/6/2
vn -1 0 -0
v 0.0 1.0 3.0
v 0.0 1.0 2.0
f 54/6/3 53/1/3 55/4/3 56/5/3
vn 0 0 1
f 53/1/4 49/2/4 52/3/4 55/4/4
vn 0 1 -0
f 56/4/5 55/1/5 52/2/5 51/3/5
vn 0 0 -1
f 50/6/6 54/1/6 56/4/6 51/5/6
v 1.0 0.0 0.0
vt 0 0
vn 1 0 -0
v 1.0 0.0 -1.0
vt 157.48 0
v 1.0 1.0 -1.0
vt 157.48 157.48
v 1.0 1.0 0.0
vt 0 157.48
f 57/1/1 58/2/1 59/3/1 60/4/1
v 0.0 0.0 0.0
vn 0 -1 -0
v 0.0 0.0 -1.0
vt -157.48 157.48
vt -157.48 0
f 61/1/2 62/4/2 58/5/2 57/6/2
vn -1 0 -0
v 0.0 1.0 0.0
v 0.0 1.0 -1.0
f 62/6/3 61/1/3 63/4/3 64/5/3
vn 0 0 1
f 61/1/4 57/2/4 60/3/4 63/4/4
vn 0 1 -0
f 64/4/5 63/1/5 60/2/5 59/3/5
vn 0 0 -1
f 58/6/6 62/1/6 64/4/6 59/5/6
v 2.0 0.0 0.0
vt 0 0
vn 1 0 -0
v 2.0 0.0 -1.0
vt 157.48 0
v 2.0 1.0 -1.0
vt 157.48 157.48
v 2.0 1.0 0.0
vt 0 157.48
f 65/1/1 66/2/1 67/3/1 68/4/1
v 1.0 0.0 0.0
vn 0 -1 -0
v 1.0 0.0 -1.0
vt -157.48 157.48
vt -157.48 0
f 69/1/2 70/4/2 66/5/2 65/6/2
vn -1 0 -0
v 1.0 1.0 0.0
v 1.0 1.0 -1.0
f 70/6/3 69/1/3 71/4/3 72/5/3
vn 0 0 1
f 69/1/4 65/2/4 68/3/4 71/4/4
vn 0 1 -0
f 72/4/5 71/1/5 68/2/5 67/3/5
vn 0 0 -1
f 66/6/6 70/1/6 72/4/6 67/5/6
v 3.0 0.0 0.0
vt 0 0
vn 1 0 -0
v 3.0 0.0 -1.0
vt 157.48 0
v 3.0 1.0 -1.0
vt 157.48 157.48
v 3.0 1.0 0.0
vt 0 157.48
f 73/1/1 74/2/1 75/3/1 76/4/1
v 2.0 0.0 0.0
vn 0 -1 -0
v 2.0 0.0 -1.0
vt -157.48 157.48
vt -157.48 0
f 77/1/2 78/4/2 74/5/2 73/6/2
vn -1 0 -0
v 2.0 1.0 0.0
v 2.0 1.0 -1.0
f 78/6/3 77/1/3 79/4/3 80/5/3
vn 0 0 1
f 77/1/4 73/2/4 76/3/4 79/4/4
vn 0 1 -0
f 80/4/5 79/1/5 76/2/5 75/3/5
vn 0 0 -1
f 74/6/6 78/1/6 80/4/6 75/5/6
v 4.0 0.0 0.0
vt 0 0
vn 1 0 -0
v 4.0 0.0 -1.0
vt 157.48 0
v 4.0 1.0 -1.0
vt 157.48 157.48
v 4.0 1.0 0.0
vt 0 157.48
f 81/1/1 82/2/1 83/3/1 84/4/1
v 3.0 0.0 0.0
vn 0 -1 -0
v 3.0 0.0 -1.0
vt -157.48 157.48
vt -157.48 0
f 85/1/2 86/4/2 82/5/2 81/6/2
vn -1 0 -0
v 3.0 1.0 0.0
v 3.0 1.0 -1.0
f 86/6/3 85/1/3 87/4/3 88/5/3
vn 0 0 1
f 85/1/4 81/2/4 84/3/4 87/4/4
vn 0 1 -0
f 88/4/5 87/1/5 84/2/5 83/3/5
vn 0 0 -1
f 82/6/6 86/1/6 88/4/6 83/5/6
v 1.0 0.0 1.0
vt 0 0
vn 1 0 -0
v 1.0 0.0 0.0
vt 157.48 0
v 1.0 1.0 0.0
vt 157.48 157.48
v 1.0 1.0 1.0
vt 0 157.48
f 89/1/1 90/2/1 91/3/1 92/4/1
v 0.0 0.0 1.0
vn 0 -1 -0
v 0.0 0.0 0.0
vt -157.48 157.48
vt -157.48 0
f 93/1/2 94/4/2 90/5/2 89/6/2
vn -1 0 -0
v 0.0 1.0 1.0
v 0.0 1.0 0.0
f 94/6/3 93/1/3 95/4/3 96/5/3
vn 0 0 1
f 93/1/4 89/2/4 92/3/4 95/4/4
vn 0 1 -0
f 96/4/5 95/1/5 92/2/5 91/3/5
vn 0 0 -1
f 90/6/6 94/1/6 96/4/6 91/5/6
v 1.0 0.0 2.0
vt 0 0
vn 1 0 -0
v 1.0 0.0 1.0
vt 157.48 0
v 1.0 1.0 1.0
vt 157.48 157.48
v 1.0 1.0 2.0
vt 0 157.48
f 97/1/1 98/2/1 99/3/1 100/4/1
v 0.0 0.0 2.0
vn 0 -1 -0
v 0.0 0.0 1.0
vt -157.48 157.48
vt -157.48 0
f 101/1/2 102/4/2 98/5/2 97/6/2
vn -1 0 -0
v 0.0 1.0 2.0
v 0.0 1.0 1.0
f 102/6/3 101/1/3 103/4/3 104/5/3
vn 0 0 1
f 101/1/4 97/2/4 100/3/4 103/4/4
vn 0 1 -0
f 104/4/5 103/1/5 100/2/5 99/3/5
vn 0 0 -1
f 98/6/6 102/1/6 104/4/6 99/5/6
v 1.0 0.0 3.0
vt 0 0
vn 1 0 -0
v 1.0 0.0 2.0
vt 157.48 0
v 1.0 1.0 2.0
vt 157.48 157.48
v 1.0 1.0 3.0
vt 0 157.48
f 105/1/1 106/2/1 107/3/1 108/4/1
v 0.0 0.0 3.0
vn 0 -1 -0
v 0.0 0.0 2.0
vt -157.48 157.48
vt -157.48 0
f 109/1/2 110/4/2 106/5/2 105/6/2
vn -1 0 -0
v 0.0 1.0 3.0
v 0.0 1.0 2.0
f 110/6/3 109/1/3 111/4/3 112/5/3
vn 0 0 1
f 109/1/4 105/2/4 108/3/4 111/4/4
vn 0 1 -0
f 112/4/5 111/1/5 108/2/5 107/3/5
vn 0 0 -1
f 106/6/6 110/1/6 112/4/6 107/5/6



v 1.0 0.0 0.0
vt 0 0
vn 1 0 -0
v 1.0 0.0 -1.0
vt 157.48 0
v 1.0 1.0 -1.0
vt 157.48 157.48
v 1.0 1.0 0.0
vt 0 157.48
f 1/1/1 2/2/1 3/3/1 4/4/1
v 0.0 0.0 0.0
vn 0 -1 -0
v 0.0 0.0 -1.0
vt -157.48 157.48
vt -157.48 0
f 5/1/2 6/4/2 2/5/2 1/6/2
vn -1 0 -0
v 0.0 1.0 0.0
v 0.0 1.0 -1.0
f 6/6/3 5/1/3 7/4/3 8/5/3
vn 0 0 1
f 5/1/4 1/2/4 4/3/4 7/4/4
vn 0 1 -0
f 8/4/5 7/1/5 4/2/5 3/3/5
vn 0 0 -1
f 2/6/6 6/1/6 8/4/6 3/5/6
v 2.0 0.0 0.0
vt 0 0
vn 1 0 -0
v 2.0 0.0 -1.0
vt 157.48 0
v 2.0 1.0 -1.0
vt 157.48 157.48
v 2.0 1.0 0.0
vt 0 157.48
f 9/1/1 10/2/1 11/3/1 12/4/1
v 1.0 0.0 0.0
vn 0 -1 -0
v 1.0 0.0 -1.0
vt -157.48 157.48
vt -157.48 0
f 13/1/2 14/4/2 10/5/2 9/6/2
vn -1 0 -0
v 1.0 1.0 0.0
v 1.0 1.0 -1.0
f 14/6/3 13/1/3 15/4/3 16/5/3
vn 0 0 1
f 13/1/4 9/2/4 12/3/4 15/4/4
vn 0 1 -0
f 16/4/5 15/1/5 12/2/5 11/3/5
vn 0 0 -1
f 10/6/6 14/1/6 16/4/6 11/5/6
v 3.0 0.0 0.0
vt 0 0
vn 1 0 -0
v 3.0 0.0 -1.0
vt 157.48 0
v 3.0 1.0 -1.0
vt 157.48 157.48
v 3.0 1.0 0.0
vt 0 157.48
f 17/1/1 18/2/1 19/3/1 20/4/1
v 2.0 0.0 0.0
vn 0 -1 -0
v 2.0 0.0 -1.0
vt -157.48 157.48
vt -157.48 0
f 21/1/2 22/4/2 18/5/2 17/6/2
vn -1 0 -0
v 2.0 1.0 0.0
v 2.0 1.0 -1.0
f 22/6/3 21/1/3 23/4/3 24/5/3
vn 0 0 1
f 21/1/4 17/2/4 20/3/4 23/4/4
vn 0 1 -0
f 24/4/5 23/1/5 20/2/5 19/3/5
vn 0 0 -1
f 18/6/6 22/1/6 24/4/6 19/5/6
v 4.0 0.0 0.0
vt 0 0
vn 1 0 -0
v 4.0 0.0 -1.0
vt 157.48 0
v 4.0 1.0 -1.0
vt 157.48 157.48
v 4.0 1.0 0.0
vt 0 157.48
f 25/1/1 26/2/1 27/3/1 28/4/1
v 3.0 0.0 0.0
vn 0 -1 -0
v 3.0 0.0 -1.0
vt -157.48 157.48
vt -157.48 0
f 29/1/2 30/4/2 26/5/2 25/6/2
vn -1 0 -0
v 3.0 1.0 0.0
v 3.0 1.0 -1.0
f 30/6/3 29/1/3 31/4/3 32/5/3
vn 0 0 1
f 29/1/4 25/2/4 28/3/4 31/4/4
vn 0 1 -0
f 32/4/5 31/1/5 28/2/5 27/3/5
vn 0 0 -1
f 26/6/6 30/1/6 32/4/6 27/5/6
v 1.0 0.0 1.0
vt 0 0
vn 1 0 -0
v 1.0 0.0 0.0
vt 157.48 0
v 1.0 1.0 0.0
vt 157.48 157.48
v 1.0 1.0 1.0
vt 0 157.48
f 33/1/1 34/2/1 35/3/1 36/4/1
v 0.0 0.0 1.0
vn 0 -1 -0
v 0.0 0.0 0.0
vt -157.48 157.48
vt -157.48 0
f 37/1/2 38/4/2 34/5/2 33/6/2
vn -1 0 -0
v 0.0 1.0 1.0
v 0.0 1.0 0.0
f 38/6/3 37/1/3 39/4/3 40/5/3
vn 0 0 1
f 37/1/4 33/2/4 36/3/4 39/4/4
vn 0 1 -0
f 40/4/5 39/1/5 36/2/5 35/3/5
vn 0 0 -1
f 34/6/6 38/1/6 40/4/6 35/5/6
v 1.0 0.0 2.0
vt 0 0
vn 1 0 -0
v 1.0 0.0 1.0
vt 157.48 0
v 1.0 1.0 1.0
vt 157.48 157.48
v 1.0 1.0 2.0
vt 0 157.48
f 41/1/1 42/2/1 43/3/1 44/4/1
v 0.0 0.0 2.0
vn 0 -1 -0
v 0.0 0.0 1.0
vt -157.48 157.48
vt -157.48 0
f 45/1/2 46/4/2 42/5/2 41/6/2
vn -1 0 -0
v 0.0 1.0 2.0
v 0.0 1.0 1.0
f 46/6/3 45/1/3 47/4/3 48/5/3
vn 0 0 1
f 45/1/4 41/2/4 44/3/4 47/4/4
vn 0 1 -0
f 48/4/5 47/1/5 44/2/5 43/3/5
vn 0 0 -1
f 42/6/6 46/1/6 48/4/6 43/5/6
v 1.0 0.0 3.0
vt 0 0
vn 1 0 -0
v 1.0 0.0 2.0
vt 157.48 0
v 1.0 1.0 2.0
vt 157.48 157.48
v 1.0 1.0 3.0
vt 0 157.48
f 49/1/1 50/2/1 51/3/1 52/4/1
v 0.0 0.0 3.0
vn 0 -1 -0
v 0.0 0.0 2.0
vt -157.48 157.48
vt -157.48 0
f 53/1/2 54/4/2 50/5/2 49/6/2
vn -1 0 -0
v 0.0 1.0 3.0
v 0.0 1.0 2.0
f 54/6/3 53/1/3 55/4/3 56/5/3
vn 0 0 1
f 53/1/4 49/2/4 52/3/4 55/4/4
vn 0 1 -0
f 56/4/5 55/1/5 52/2/5 51/3/5
vn 0 0 -1
f 50/6/6 54/1/6 56/4/6 51/5/6
v 1.0 0.0 0.0
vt 0 0
vn 1 0 -0
v 1.0 0.0 -1.0
vt 157.48 0
v 1.0 1.0 -1.0
vt 157.48 157.48
v 1.0 1.0 0.0
vt 0 157.48
f 57/1/1 58/2/1 59/3/1 60/4/1
v 0.0 0.0 0.0
vn 0 -1 -0
v 0.0 0.0 -1.0
vt -157.48 157.48
vt -157.48 0
f 61/1/2 62/4/2 58/5/2 57/6/2
vn -1 0 -0
v 0.0 1.0 0.0
v 0.0 1.0 -1.0
f 62/6/3 61/1/3 63/4/3 64/5/3
vn 0 0 1
f 61/1/4 57/2/4 60/3/4 63/4/4
vn 0 1 -0
f 64/4/5 63/1/5 60/2/5 59/3/5
vn 0 0 -1
f 58/6/6 62/1/6 64/4/6 59/5/6
v 2.0 0.0 0.0
vt 0 0
vn 1 0 -0
v 2.0 0.0 -1.0
vt 157.48 0
v 2.0 1.0 -1.0
vt 157.48 157.48
v 2.0 1.0 0.0
vt 0 157.48
f 65/1/1 66/2/1 67/3/1 68/4/1
v 1.0 0.0 0.0
vn 0 -1 -0
v 1.0 0.0 -1.0
vt -157.48 157.48
vt -157.48 0
f 69/1/2 70/4/2 66/5/2 65/6/2
vn -1 0 -0
v 1.0 1.0 0.0
v 1.0 1.0 -1.0
f 70/6/3 69/1/3 71/4/3 72/5/3
vn 0 0 1
f 69/1/4 65/2/4 68/3/4 71/4/4
vn 0 1 -0
f 72/4/5 71/1/5 68/2/5 67/3/5
vn 0 0 -1
f 66/6/6 70/1/6 72/4/6 67/5/6
v 3.0 0.0 0.0
vt 0 0
vn 1 0 -0
v 3.0 0.0 -1.0
vt 157.48 0
v 3.0 1.0 -1.0
vt 157.48 157.48
v 3.0 1.0 0.0
vt 0 157.48
f 73/1/1 74/2/1 75/3/1 76/4/1
v 2.0 0.0 0.0
vn 0 -1 -0
v 2.0 0.0 -1.0
vt -157.48 157.48
vt -157.48 0
f 77/1/2 78/4/2 74/5/2 73/6/2
vn -1 0 -0
v 2.0 1.0 0.0
v 2.0 1.0 -1.0
f 78/6/3 77/1/3 79/4/3 80/5/3
vn 0 0 1
f 77/1/4 73/2/4 76/3/4 79/4/4
vn 0 1 -0
f 80/4/5 79/1/5 76/2/5 75/3/5
vn 0 0 -1
f 74/6/6 78/1/6 80/4/6 75/5/6
v 4.0 0.0 0.0
vt 0 0
vn 1 0 -0
v 4.0 0.0 -1.0
vt 157.48 0
v 4.0 1.0 -1.0
vt 157.48 157.48
v 4.0 1.0 0.0
vt 0 157.48
f 81/1/1 82/2/1 83/3/1 84/4/1
v 3.0 0.0 0.0
vn 0 -1 -0
v 3.0 0.0 -1.0
vt -157.48 157.48
vt -157.48 0
f 85/1/2 86/4/2 82/5/2 81/6/2
vn -1 0 -0
v 3.0 1.0 0.0
v 3.0 1.0 -1.0
f 86/6/3 85/1/3 87/4/3 88/5/3
vn 0 0 1
f 85/1/4 81/2/4 84/3/4 87/4/4
vn 0 1 -0
f 88/4/5 87/1/5 84/2/5 83/3/5
vn 0 0 -1
f 82/6/6 86/1/6 88/4/6 83/5/6
v 1.0 0.0 1.0
vt 0 0
vn 1 0 -0
v 1.0 0.0 0.0
vt 157.48 0
v 1.0 1.0 0.0
vt 157.48 157.48
v 1.0 1.0 1.0
vt 0 157.48
f 89/1/1 90/2/1 91/3/1 92/4/1
v 0.0 0.0 1.0
vn 0 -1 -0
v 0.0 0.0 0.0
vt -157.48 157.48
vt -157.48 0
f 93/1/2 94/4/2 90/5/2 89/6/2
vn -1 0 -0
v 0.0 1.0 1.0
v 0.0 1.0 0.0
f 94/6/3 93/1/3 95/4/3 96/5/3
vn 0 0 1
f 93/1/4 89/2/4 92/3/4 95/4/4
vn 0 1 -0
f 96/4/5 95/1/5 92/2/5 91/3/5
vn 0 0 -1
f 90/6/6 94/1/6 96/4/6 91/5/6
v 1.0 0.0 2.0
vt 0 0
vn 1 0 -0
v 1.0 0.0 1.0
vt 157.48 0
v 1.0 1.0 1.0
vt 157.48 157.48
v 1.0 1.0 2.0
vt 0 157.48
f 97/1/1 98/2/1 99/3/1 100/4/1
v 0.0 0.0 2.0
vn 0 -1 -0
v 0.0 0.0 1.0
vt -157.48 157.48
vt -157.48 0
f 101/1/2 102/4/2 98/5/2 97/6/2
vn -1 0 -0
v 0.0 1.0 2.0
v 0.0 1.0 1.0
f 102/6/3 101/1/3 103/4/3 104/5/3
vn 0 0 1
f 101/1/4 97/2/4 100/3/4 103/4/4
vn 0 1 -0
f 104/4/5 103/1/5 100/2/5 99/3/5
vn 0 0 -1
f 98/6/6 102/1/6 104/4/6 99/5/6
v 1.0 0.0 3.0
vt 0 0
vn 1 0 -0
v 1.0 0.0 2.0
vt 157.48 0
v 1.0 1.0 2.0
vt 157.48 157.48
v 1.0 1.0 3.0
vt 0 157.48
f 105/1/1 106/2/1 107/3/1 108/4/1
v 0.0 0.0 3.0
vn 0 -1 -0
v 0.0 0.0 2.0
vt -157.48 157.48
vt -157.48 0
f 109/1/2 110/4/2 106/5/2 105/6/2
vn -1 0 -0
v 0.0 1.0 3.0
v 0.0 1.0 2.0
f 110/6/3 109/1/3 111/4/3 112/5/3
vn 0 0 1
f 109/1/4 105/2/4 108/3/4 111/4/4
vn 0 1 -0
f 112/4/5 111/1/5 108/2/5 107/3/5
vn 0 0 -1
f 106/6/6 110/1/6 112/4/6 107/5/6
